<?xml version="1.0" standalone="no"?>
<!DOCTYPE svg PUBLIC "-//W3C//DTD SVG 20010904//EN"
 "http://www.w3.org/TR/2001/REC-SVG-20010904/DTD/svg10.dtd">
<svg version="1.0" xmlns="http://www.w3.org/2000/svg"
 width="16.000000pt" height="16.000000pt" viewBox="0 0 16.000000 16.000000"
 preserveAspectRatio="xMidYMid meet">
<metadata>
Created by potrace 1.11, written by Peter Selinger 2001-2013
</metadata>
<g transform="translate(0.000000,16.000000) scale(0.006154,-0.006154)"
fill="#000000" stroke="none">
<path d="M200 2550 l0 -50 -50 0 -50 0 0 -50 0 -50 -50 0 -50 0 0 -1100 0
-1100 50 0 50 0 0 -50 0 -50 50 0 50 0 0 -50 0 -50 1100 0 1100 0 0 50 0 50
50 0 50 0 0 50 0 50 50 0 50 0 0 1100 0 1100 -50 0 -50 0 0 50 0 50 -50 0 -50
0 0 50 0 50 -1100 0 -1100 0 0 -50z m640 -1160 l0 -560 185 0 185 0 0 560 0
560 95 0 95 0 0 -560 0 -560 95 0 95 0 0 95 0 95 90 0 90 0 0 465 0 465 95 0
95 0 0 -470 0 -470 -90 0 -90 0 0 -90 0 -90 -95 0 -95 0 0 -95 0 -95 -470 0
-470 0 0 655 0 655 95 0 95 0 0 -560z"/>
</g>
</svg>
